<?xml version="1.0" standalone="no"?>
<!DOCTYPE svg PUBLIC "-//W3C//DTD SVG 20010904//EN"
 "http://www.w3.org/TR/2001/REC-SVG-20010904/DTD/svg10.dtd">
<svg version="1.0" xmlns="http://www.w3.org/2000/svg"
 width="16.000000pt" height="16.000000pt" viewBox="0 0 16.000000 16.000000"
 preserveAspectRatio="xMidYMid meet">
<metadata>
Created by potrace 1.11, written by Peter Selinger 2001-2013
</metadata>
<g transform="translate(0.000000,16.000000) scale(0.011594,-0.011594)"
fill="#000000" stroke="none">
<path d="M535 1361 c-324 -78 -543 -363 -531 -691 5 -122 18 -174 72 -285 80
-165 222 -290 396 -349 71 -24 95 -27 198 -31 338 -14 639 229 699 565 10 57
8 212 -4 264 -28 126 -97 250 -195 347 -61 60 -96 85 -171 121 -52 25 -116 51
-144 58 -81 20 -240 20 -320 1z"/>
</g>
</svg>
